<svg width="301" height="275" viewBox="0 0 301 275" fill="none" xmlns="http://www.w3.org/2000/svg">
<path d="M167.882 152.817L150.017 155.554C148.735 155.779 147.601 156.452 146.856 157.43C146.111 158.408 145.814 159.613 146.03 160.788C146.245 161.963 146.955 163.014 148.009 163.717C149.062 164.42 150.375 164.72 151.667 164.552L169.527 161.837C196.266 157.781 223.704 160.213 249.087 168.891C249.651 169.073 250.245 169.164 250.842 169.16C252.015 169.162 253.151 168.787 254.052 168.102C254.953 167.416 255.561 166.464 255.771 165.411C255.98 164.358 255.776 163.271 255.196 162.341C254.616 161.411 253.696 160.696 252.597 160.322C225.568 151.089 196.353 148.501 167.882 152.817Z" fill="#FF9B1D"/>
<path d="M156.341 139.184C156.624 139.725 157.02 140.21 157.508 140.612C157.996 141.013 158.565 141.323 159.184 141.523C159.803 141.724 160.459 141.811 161.115 141.78C161.771 141.749 162.414 141.6 163.006 141.342L268.006 95.7173C268.599 95.4597 269.131 95.098 269.571 94.6529C270.01 94.2079 270.35 93.6881 270.569 93.1234C270.789 92.5586 270.885 91.9599 270.851 91.3615C270.817 90.763 270.654 90.1765 270.371 89.6355C270.089 89.0945 269.693 88.6095 269.205 88.2082C268.717 87.807 268.148 87.4973 267.529 87.2969C266.91 87.0965 266.254 87.0093 265.598 87.0403C264.942 87.0713 264.299 87.2198 263.707 87.4774L158.707 133.102C158.114 133.36 157.582 133.722 157.142 134.167C156.702 134.612 156.363 135.132 156.143 135.696C155.924 136.261 155.828 136.86 155.862 137.458C155.896 138.057 156.059 138.643 156.341 139.184Z" fill="#FA00C1"/>
<path d="M100.451 132.308C101.059 132.541 101.712 132.661 102.371 132.659C103.358 132.66 104.323 132.393 105.144 131.894C105.965 131.394 106.606 130.685 106.986 129.854L114.261 113.953C126.245 87.8278 129.041 58.9506 122.261 31.3126C122.129 30.7186 121.868 30.1546 121.494 29.6535C121.12 29.1524 120.641 28.7244 120.083 28.3943C119.526 28.0642 118.903 27.8388 118.249 27.7312C117.595 27.6236 116.924 27.6359 116.276 27.7674C115.627 27.899 115.014 28.1472 114.472 28.4974C113.93 28.8477 113.469 29.293 113.118 29.8074C112.767 30.3219 112.531 30.895 112.425 31.4934C112.319 32.0919 112.345 32.7035 112.501 33.2928C118.83 59.0933 116.221 86.0506 105.036 110.44L97.7659 126.359C97.2612 127.473 97.2603 128.724 97.7634 129.839C98.2665 130.954 99.2327 131.841 100.451 132.308Z" fill="#0071DC"/>
<path d="M260.842 178.285C260.842 180.992 261.722 183.638 263.37 185.889C265.018 188.14 267.361 189.894 270.102 190.93C272.842 191.966 275.858 192.237 278.768 191.709C281.678 191.181 284.351 189.877 286.448 187.963C288.546 186.049 289.975 183.61 290.554 180.955C291.132 178.3 290.835 175.548 289.7 173.047C288.565 170.546 286.642 168.408 284.175 166.904C281.709 165.4 278.809 164.597 275.842 164.597C271.864 164.597 268.048 166.039 265.235 168.606C262.422 171.173 260.842 174.655 260.842 178.285ZM280.842 178.285C280.842 179.187 280.549 180.069 279.999 180.819C279.45 181.57 278.669 182.155 277.755 182.5C276.842 182.845 275.836 182.936 274.866 182.76C273.896 182.583 273.006 182.149 272.306 181.511C271.607 180.873 271.131 180.06 270.938 179.175C270.745 178.29 270.844 177.372 271.222 176.539C271.601 175.705 272.242 174.992 273.064 174.491C273.886 173.99 274.853 173.722 275.842 173.722C277.168 173.722 278.44 174.203 279.377 175.058C280.315 175.914 280.842 177.075 280.842 178.285Z" fill="#FF9B1D"/>
<path d="M170.842 50.5347C170.842 47.8275 169.962 45.1812 168.314 42.9303C166.666 40.6794 164.323 38.925 161.582 37.8891C158.841 36.8531 155.825 36.582 152.915 37.1102C150.006 37.6383 147.333 38.9419 145.235 40.8561C143.137 42.7704 141.709 45.2093 141.13 47.8644C140.551 50.5195 140.848 53.2716 141.984 55.7727C143.119 58.2737 145.042 60.4114 147.508 61.9154C149.975 63.4194 152.875 64.2222 155.842 64.2222C159.82 64.2222 163.635 62.7801 166.448 60.2132C169.261 57.6463 170.842 54.1648 170.842 50.5347ZM150.842 50.5347C150.842 49.6323 151.135 48.7502 151.684 47.9999C152.234 47.2496 153.015 46.6648 153.928 46.3195C154.842 45.9741 155.847 45.8838 156.817 46.0598C157.787 46.2359 158.678 46.6704 159.377 47.3085C160.077 47.9466 160.553 48.7595 160.746 49.6446C160.939 50.5296 160.84 51.447 160.461 52.2807C160.083 53.1144 159.442 53.8269 158.62 54.3283C157.797 54.8296 156.831 55.0972 155.842 55.0972C154.516 55.0972 153.244 54.6165 152.306 53.7608C151.369 52.9052 150.842 51.7447 150.842 50.5347Z" fill="#FA00C1"/>
<path d="M110.842 18.5972C116.365 18.5972 120.842 14.5118 120.842 9.47217C120.842 4.43257 116.365 0.347168 110.842 0.347168C105.319 0.347168 100.842 4.43257 100.842 9.47217C100.842 14.5118 105.319 18.5972 110.842 18.5972Z" fill="#0071DC"/>
<path d="M245.842 32.2847C245.842 33.4947 246.369 34.6552 247.306 35.5108C248.244 36.3665 249.516 36.8472 250.842 36.8472C252.168 36.8472 253.44 36.3665 254.377 35.5108C255.315 34.6552 255.842 33.4947 255.842 32.2847V27.7222C255.842 26.5121 255.315 25.3516 254.377 24.496C253.44 23.6404 252.168 23.1597 250.842 23.1597C249.516 23.1597 248.244 23.6404 247.306 24.496C246.369 25.3516 245.842 26.5121 245.842 27.7222V32.2847Z" fill="#FA00C1"/>
<path d="M250.842 0.347168C249.516 0.347168 248.244 0.827858 247.306 1.68349C246.369 2.53913 245.842 3.69962 245.842 4.90967V9.47217C245.842 10.6822 246.369 11.8427 247.306 12.6983C248.244 13.554 249.516 14.0347 250.842 14.0347C252.168 14.0347 253.44 13.554 254.377 12.6983C255.315 11.8427 255.842 10.6822 255.842 9.47217V4.90967C255.842 3.69962 255.315 2.53913 254.377 1.68349C253.44 0.827858 252.168 0.347168 250.842 0.347168Z" fill="#FA00C1"/>
<path d="M265.842 14.0347H260.842C259.516 14.0347 258.244 14.5154 257.306 15.371C256.369 16.2266 255.842 17.3871 255.842 18.5972C255.842 19.8072 256.369 20.9677 257.306 21.8233C258.244 22.679 259.516 23.1597 260.842 23.1597H265.842C267.168 23.1597 268.44 22.679 269.377 21.8233C270.315 20.9677 270.842 19.8072 270.842 18.5972C270.842 17.3871 270.315 16.2266 269.377 15.371C268.44 14.5154 267.168 14.0347 265.842 14.0347Z" fill="#FA00C1"/>
<path d="M240.842 14.0347H235.842C234.516 14.0347 233.244 14.5154 232.306 15.371C231.369 16.2266 230.842 17.3871 230.842 18.5972C230.842 19.8072 231.369 20.9677 232.306 21.8233C233.244 22.679 234.516 23.1597 235.842 23.1597H240.842C242.168 23.1597 243.44 22.679 244.377 21.8233C245.315 20.9677 245.842 19.8072 245.842 18.5972C245.842 17.3871 245.315 16.2266 244.377 15.371C243.44 14.5154 242.168 14.0347 240.842 14.0347Z" fill="#FA00C1"/>
<path d="M215.841 82.4723C217.167 82.4723 218.439 81.9916 219.377 81.136C220.315 80.2803 220.841 79.1198 220.841 77.9098V55.0015C220.841 53.7914 220.315 52.6309 219.377 51.7753C218.439 50.9197 217.167 50.439 215.841 50.439H190.736C189.41 50.439 188.138 50.9197 187.201 51.7753C186.263 52.6309 185.736 53.7914 185.736 55.0015V77.9098C185.736 79.1198 186.263 80.2803 187.201 81.136C188.138 81.9916 189.41 82.4723 190.736 82.4723H215.841ZM195.736 59.564H210.841V73.3473H195.736V59.564Z" fill="#FF9B1D"/>
<path d="M122.127 135.712C123.015 136.611 124.257 137.151 125.581 137.214C126.905 137.278 128.202 136.859 129.187 136.049L179.187 94.9869C180.143 94.1703 180.709 93.0444 180.764 91.851C180.82 90.6576 180.361 89.492 179.485 88.6043C178.609 87.7167 177.386 87.1779 176.08 87.1036C174.774 87.0293 173.487 87.4255 172.497 88.207L122.497 129.27C121.512 130.079 120.92 131.213 120.851 132.421C120.781 133.629 121.24 134.813 122.127 135.712Z" fill="#0071DC"/>
<path d="M275.842 114.41V109.847C275.842 108.637 275.315 107.477 274.377 106.621C273.44 105.765 272.168 105.285 270.842 105.285C269.516 105.285 268.244 105.765 267.306 106.621C266.369 107.477 265.842 108.637 265.842 109.847V114.41C265.842 115.62 266.369 116.78 267.306 117.636C268.244 118.491 269.516 118.972 270.842 118.972C272.168 118.972 273.44 118.491 274.377 117.636C275.315 116.78 275.842 115.62 275.842 114.41Z" fill="#0071DC"/>
<path d="M281.452 107.726L284.987 110.951C285.93 111.783 287.193 112.242 288.504 112.232C289.815 112.222 291.069 111.742 291.996 110.896C292.924 110.05 293.449 108.906 293.461 107.709C293.472 106.513 292.968 105.361 292.057 104.5L288.522 101.274C287.579 100.443 286.316 99.9834 285.005 99.9938C283.694 100.004 282.44 100.484 281.513 101.33C280.586 102.176 280.06 103.32 280.049 104.517C280.038 105.713 280.542 106.865 281.452 107.726Z" fill="#0071DC"/>
<path d="M295.842 87.0347H290.842C289.516 87.0347 288.244 87.5154 287.306 88.371C286.369 89.2266 285.842 90.3871 285.842 91.5972C285.842 92.8072 286.369 93.9677 287.306 94.8233C288.244 95.679 289.516 96.1597 290.842 96.1597H295.842C297.168 96.1597 298.44 95.679 299.377 94.8233C300.315 93.9677 300.842 92.8072 300.842 91.5972C300.842 90.3871 300.315 89.2266 299.377 88.371C298.44 87.5154 297.168 87.0347 295.842 87.0347Z" fill="#0071DC"/>
<path d="M284.987 83.257C286.313 83.2568 287.585 82.7759 288.522 81.9202L292.057 78.6945C292.968 77.834 293.472 76.6815 293.461 75.4853C293.449 74.289 292.923 73.1447 291.996 72.2987C291.069 71.4528 289.815 70.973 288.504 70.9626C287.193 70.9522 285.93 71.4121 284.987 72.2431L281.452 75.4688C280.753 76.1069 280.277 76.9198 280.084 77.8047C279.891 78.6896 279.99 79.6068 280.369 80.4404C280.747 81.274 281.388 81.9864 282.21 82.4878C283.032 82.9891 283.998 83.2568 284.987 83.257Z" fill="#0071DC"/>
<path d="M270.842 64.2222C269.516 64.2222 268.244 64.7029 267.306 65.5585C266.369 66.4141 265.842 67.5746 265.842 68.7847V73.3472C265.842 74.5572 266.369 75.7177 267.306 76.5733C268.244 77.429 269.516 77.9097 270.842 77.9097C272.168 77.9097 273.44 77.429 274.377 76.5733C275.315 75.7177 275.842 74.5572 275.842 73.3472V68.7847C275.842 67.5746 275.315 66.4141 274.377 65.5585C273.44 64.7029 272.168 64.2222 270.842 64.2222Z" fill="#0071DC"/>
<path d="M256.696 72.2431C255.753 71.4121 254.49 70.9522 253.179 70.9626C251.868 70.973 250.614 71.4528 249.687 72.2987C248.76 73.1447 248.234 74.289 248.223 75.4853C248.211 76.6815 248.715 77.834 249.626 78.6945L253.161 81.9202C254.104 82.7513 255.367 83.2112 256.678 83.2008C257.989 83.1904 259.243 82.7106 260.17 81.8646C261.097 81.0187 261.623 79.8744 261.635 78.6781C261.646 77.4818 261.142 76.3293 260.231 75.4688L256.696 72.2431Z" fill="#0071DC"/>
<path d="M60.5966 20.0754C60.308 19.2664 59.7772 18.5472 59.0641 17.9989C58.3511 17.4507 57.4843 17.0953 56.5616 16.9729L41.8866 15.0247L35.3416 2.89303C34.8818 2.18063 34.2262 1.59009 33.4396 1.17981C32.653 0.769524 31.7627 0.553711 30.8566 0.553711C29.9506 0.553711 29.0602 0.769524 28.2736 1.17981C27.487 1.59009 26.8314 2.18063 26.3716 2.89303L19.7966 15.0247L5.12163 16.9729C4.19833 17.0945 3.33073 17.4494 2.61691 17.9974C1.90309 18.5455 1.37152 19.2648 1.08231 20.0741C0.793088 20.8834 0.757754 21.7504 0.980299 22.577C1.20284 23.4037 1.67439 24.1571 2.34163 24.752L12.9566 34.1963L10.4566 47.5325C10.2939 48.3736 10.3931 49.2394 10.7431 50.0315C11.093 50.8237 11.6795 51.5103 12.436 52.0132C13.1924 52.5162 14.0884 52.8153 15.0219 52.8765C15.9555 52.9378 16.8891 52.7587 17.7166 52.3597L30.8416 46.0452L43.9666 52.3414C44.7924 52.7376 45.7231 52.915 46.6536 52.8537C47.5841 52.7924 48.4772 52.4947 49.232 51.9944C49.9868 51.4941 50.5731 50.8111 50.9247 50.0226C51.2763 49.2341 51.3792 48.3716 51.2216 47.5325L48.7216 34.1963L59.3416 24.752C60.0079 24.1568 60.4784 23.4034 60.7002 22.577C60.922 21.7507 60.8861 20.8842 60.5966 20.0754ZM39.8416 29.3373C39.2616 29.8529 38.8276 30.4894 38.5767 31.1919C38.3259 31.8945 38.2658 32.6421 38.4016 33.3705L39.6416 39.9633L33.1666 36.8472C32.4495 36.5035 31.6516 36.3239 30.8416 36.3239C30.0316 36.3239 29.2337 36.5035 28.5166 36.8472L22.0166 39.9588L23.2566 33.366C23.3948 32.6401 23.3382 31.8945 23.0918 31.1929C22.8454 30.4913 22.4164 29.8547 21.8416 29.3373L16.5866 24.6698L23.8416 23.7072C24.6439 23.6008 25.4058 23.3181 26.0617 22.8834C26.7176 22.4486 27.2478 21.8748 27.6066 21.2115L30.8416 15.2209L34.0816 21.2115C34.44 21.8742 34.9694 22.4476 35.6244 22.8824C36.2794 23.3171 37.0402 23.6001 37.8416 23.7072L45.0916 24.6698L39.8416 29.3373Z" fill="#FA00C1"/>
<path d="M283.932 229.042L281.872 226.223C276.157 218.424 268.756 211.774 260.123 206.679C251.489 201.585 241.806 198.155 231.667 196.599C230.375 196.43 229.062 196.73 228.009 197.433C226.955 198.136 226.245 199.188 226.03 200.362C225.814 201.537 226.111 202.742 226.856 203.72C227.601 204.698 228.736 205.371 230.017 205.596C244.797 207.885 258.267 214.737 268.172 225.005C264.055 225.68 260.143 227.147 256.695 229.308C253.247 231.469 250.342 234.274 248.172 237.538C245.586 241.764 244.946 246.754 246.393 251.411C247.839 256.068 251.253 260.01 255.885 262.369C260.516 264.729 265.985 265.313 271.088 263.993C276.192 262.673 280.511 259.558 283.097 255.332C285.154 251.708 286.265 247.7 286.342 243.62C288.949 247.075 290.435 251.131 290.629 255.322C290.823 259.513 289.716 263.67 287.437 267.313C287.097 267.837 286.874 268.418 286.784 269.022C286.693 269.625 286.736 270.239 286.91 270.828C287.084 271.416 287.385 271.967 287.796 272.447C288.207 272.927 288.719 273.328 289.302 273.625C289.885 273.922 290.527 274.109 291.191 274.175C291.855 274.242 292.527 274.187 293.167 274.012C293.806 273.838 294.402 273.549 294.917 273.162C295.432 272.774 295.858 272.296 296.167 271.757C300.573 264.576 301.762 256.118 299.484 248.155C297.207 240.193 291.641 233.343 283.952 229.042H283.932ZM274.377 250.879C273.741 251.931 272.883 252.858 271.853 253.607C270.822 254.356 269.64 254.912 268.374 255.242C267.108 255.573 265.782 255.672 264.474 255.534C263.165 255.396 261.9 255.024 260.749 254.438C259.599 253.853 258.587 253.065 257.771 252.122C256.955 251.178 256.352 250.097 255.995 248.94C255.639 247.783 255.536 246.573 255.694 245.38C255.851 244.186 256.265 243.033 256.912 241.986C258.369 239.809 260.341 237.958 262.684 236.567C265.027 235.176 267.681 234.281 270.452 233.947C271.322 233.926 272.182 234.108 272.952 234.476C277.172 236.625 277.397 245.942 274.377 250.879Z" fill="#0071DC"/>
</svg>
